<svg width="10" height="10" viewBox="0 0 10 10" fill="none" xmlns="http://www.w3.org/2000/svg">
<path d="M10 1.875C9.625 2.0625 9.25 2.125 8.8125 2.1875C9.25 1.9375 9.5625 1.5625 9.6875 1.0625C9.3125 1.3125 8.875 1.4375 8.375 1.5625C8 1.1875 7.4375 0.9375 6.875 0.9375C5.5625 0.9375 4.5625 2.1875 4.875 3.4375C3.1875 3.375 1.6875 2.5625 0.625 1.3125C0.0625 2.25 0.375 3.4375 1.25 4.0625C0.9375 4.0625 0.625 3.9375 0.3125 3.8125C0.3125 4.75 1 5.625 1.9375 5.875C1.625 5.9375 1.3125 6 1 5.9375C1.25 6.75 2 7.375 2.9375 7.375C2.1875 7.9375 1.0625 8.25 0 8.125C0.9375 8.6875 2 9.0625 3.125 9.0625C6.9375 9.0625 9.0625 5.875 8.9375 2.9375C9.375 2.6875 9.75 2.3125 10 1.875Z" fill="white"/>
</svg>
